<?xml version="1.0" encoding="UTF-8"?>
<svg xmlns="http://www.w3.org/2000/svg" viewBox="0 0 160 160" width="160" height="160">
  <circle cx="80" cy="80" r="80" fill="#ede9f8"/>
  <circle cx="80" cy="80" r="77" fill="none" stroke="#d4cdee" stroke-width="3" opacity="0.55"/>
  <svg x="31" y="14.7" width="98" height="130.6" viewBox="-60 -80 120 160" overflow="visible">
  <defs><filter id="wc" x="-20%" y="-20%" width="140%" height="140%">
    <feTurbulence type="fractalNoise" baseFrequency="0.7" numOctaves="2" seed="4" result="n"/>
    <feDisplacementMap in="SourceGraphic" in2="n" scale="1.4"/>
  </filter></defs>
  <g filter="url(#wc)">
    <ellipse cx="0" cy="44.25701842494939" rx="16" ry="3" fill="rgba(40,25,8,0.16)"/>
    <path d="M 4 6 Q 7.534498743901908 24.628509212474697 11.1 39.3" stroke="#5BB8D4" stroke-width="9" stroke-linecap="round" fill="none"/>
    <path d="M -4 6 Q -7.534498743901908 24.628509212474697 -11.1 39.3" stroke="#5BB8D4" stroke-width="9" stroke-linecap="round" fill="none"/>
    <ellipse cx="0" cy="-8" rx="11" ry="16" fill="#5BB8D4" transform="rotate(0)"/>
    <ellipse cx="-3" cy="-12" rx="3" ry="6" fill="#84c9de" opacity="0.5" transform="rotate(0)"/>
    <path d="M -10 -22 Q -26.7 -24.7 -37.6 -26.9" stroke="#5BB8D4" stroke-width="7.5" stroke-linecap="round" fill="none"/>
    <path d="M 10 -22 Q 26.7 -24.7 37.6 -26.9" stroke="#5BB8D4" stroke-width="7.5" stroke-linecap="round" fill="none"/>
    <rect x="-3" y="-26" width="6" height="4" fill="#5BB8D4"/>
    <circle cx="-0.35" cy="-34" r="9" fill="#5BB8D4"/>
    <ellipse cx="-3.35" cy="-36" rx="2.5" ry="4" fill="#84c9de" opacity="0.55"/>
  </g>
</svg>
</svg>
