<?xml version="1.0" encoding="UTF-8"?>
<svg xmlns="http://www.w3.org/2000/svg" viewBox="0 0 160 160" width="160" height="160">
  <circle cx="80" cy="80" r="80" fill="#f5dbd8"/>
  <circle cx="80" cy="80" r="77" fill="none" stroke="#e8aba5" stroke-width="3" opacity="0.55"/>
  <svg x="31" y="14.7" width="98" height="130.6" viewBox="-60 -80 120 160" overflow="visible">
  <defs><filter id="wc" x="-20%" y="-20%" width="140%" height="140%">
    <feTurbulence type="fractalNoise" baseFrequency="0.7" numOctaves="2" seed="12" result="n"/>
    <feDisplacementMap in="SourceGraphic" in2="n" scale="1.4"/>
  </filter></defs>
  <g filter="url(#wc)">
    <ellipse cx="0" cy="45" rx="16" ry="3" fill="rgba(40,25,8,0.16)"/>
    <path d="M 4 6 Q 4 25 4.0 40.0" stroke="#b00000" stroke-width="9" stroke-linecap="round" fill="none"/>
    <path d="M -4 6 Q -4 25 -4.0 40.0" stroke="#b00000" stroke-width="9" stroke-linecap="round" fill="none"/>
    <ellipse cx="0" cy="-8" rx="11" ry="16" fill="#b00000" transform="rotate(0)"/>
    <ellipse cx="-3" cy="-12" rx="3" ry="6" fill="#c33f3f" opacity="0.5" transform="rotate(0)"/>
    <path d="M -10 -22 Q -19.2 -35.3 -24.0 -46.2" stroke="#b00000" stroke-width="7.5" stroke-linecap="round" fill="none"/>
    <path d="M 10 -22 Q 19.2 -35.3 24.0 -46.2" stroke="#b00000" stroke-width="7.5" stroke-linecap="round" fill="none"/>
    <rect x="-3" y="-26" width="6" height="4" fill="#b00000"/>
    <circle cx="-0.10" cy="-34" r="9" fill="#b00000"/>
    <ellipse cx="-3.10" cy="-36" rx="2.5" ry="4" fill="#c33f3f" opacity="0.55"/>
  </g>
</svg>
</svg>
